<?xml version="1.0" standalone="no"?><!DOCTYPE svg PUBLIC "-//W3C//DTD SVG 1.1//EN" "http://www.w3.org/Graphics/SVG/1.1/DTD/svg11.dtd"><svg class="icon" width="200px" height="200.00px" viewBox="0 0 1024 1024" version="1.1" xmlns="http://www.w3.org/2000/svg"><path fill="#1296db" d="M224 384v-96C224 128.942 352.942 0 512 0s288 128.942 288 288v96h96c35.346 0 64 28.654 64 64v512c0 35.346-28.654 64-64 64H128c-35.346 0-64-28.654-64-64V448c0-35.346 28.654-64 64-64h96z m672 64H128v512h768V448zM512 608c17.673 0 32 14.327 32 32v128c0 17.673-14.327 32-32 32-17.673 0-32-14.327-32-32V640c0-17.673 14.327-32 32-32zM288 384h448v-96c0-123.712-100.288-224-224-224S288 164.288 288 288v96z"  /></svg>