<?xml version="1.0" standalone="no"?><!DOCTYPE svg PUBLIC "-//W3C//DTD SVG 1.1//EN" "http://www.w3.org/Graphics/SVG/1.1/DTD/svg11.dtd"><svg class="icon" width="200px" height="200.00px" viewBox="0 0 1024 1024" version="1.1" xmlns="http://www.w3.org/2000/svg"><path fill="#1296db" d="M768 512H256a51.2 51.2 0 0 0-51.2 51.2v204.8a51.2 51.2 0 0 0 51.2 51.2h512a51.2 51.2 0 0 0 51.2-51.2v-204.8a51.2 51.2 0 0 0-51.2-51.2z m-486.4-51.2v-76.8a230.4 230.4 0 0 1 460.8 0v76.8h25.6a102.4 102.4 0 0 1 102.4 102.4v204.8a102.4 102.4 0 0 1-102.4 102.4H256a102.4 102.4 0 0 1-102.4-102.4v-204.8a102.4 102.4 0 0 1 102.4-102.4h25.6z m51.2 0h358.4v-76.8a179.2 179.2 0 0 0-358.4 0v76.8z"  /></svg>